<svg width="977" height="1236" viewBox="0 0 977 1236" fill="none" xmlns="http://www.w3.org/2000/svg">
<g id="Gato Jabon [Vectorized]" clip-path="url(#clip0_420_138)">
<g id="Espuma Oreja Derecha">
<path id="Vector" d="M727.37 7.86378C745.622 -4.89022 772.938 -6.0272 790.86 8.8888L791.402 8.82582C802.073 18.6498 809.162 20.3368 814.146 43.1658C818.846 64.6738 800.812 78.1598 812.304 85.9308C813.605 90.9778 813.426 91.1578 815.966 93.9118L816.351 95.4968L814.258 96.7418C813.371 101.764 813.27 103.652 815.279 108.117C820.638 109.689 817.473 101.379 825.466 106.397C832.649 169.4 767.858 175.026 746.515 149.659C742.401 148.834 737.149 129.608 731.037 123.884C725.439 121.189 715.637 105.65 712.841 105.589C692.463 105.143 685.184 116.639 664.985 98.3858L666.229 96.2288C667.424 87.7978 667.078 89.0728 670.354 85.3278C664.627 80.2468 666.24 70.4028 667 61.2108L665.889 60.3058C663.572 61.9438 663.673 61.6888 661.156 61.1628C659.314 58.0298 659.481 57.2008 658.945 52.7308C662.099 47.1168 666.274 43.5628 670.215 40.1088C680.92 33.4188 688.187 34.1538 699.339 34.5838C704.391 34.7788 707.594 33.7128 710.82 26.8408C713.087 22.0198 715.342 19.4888 718.378 16.4568L719.355 15.4908C720.979 13.5198 725.433 9.66578 727.37 7.86378Z" fill="#E3F4F9"/>
<path id="Vector_2" d="M791.401 8.82568C802.073 18.6497 809.162 20.3366 814.146 43.1656C818.846 64.6736 800.812 78.1597 812.304 85.9307C813.605 90.9777 813.426 91.1577 815.966 93.9117L816.351 95.4966L814.258 96.7416C813.37 101.764 813.27 103.652 815.279 108.117C820.637 109.689 817.473 101.379 825.465 106.397C832.649 169.4 767.858 175.026 746.514 149.659C749.149 143.099 749.244 150.128 754.786 143.404L756.382 144.25C761.266 147.407 769.812 152.702 775.231 153.235C787.544 154.448 814.604 146.231 814.972 117.664C815.257 96.0647 799.026 94.4057 793.907 85.3157C794.415 71.1617 816.97 52.0946 788.923 20.3536C792.88 15.4996 792.406 16.6587 791.401 8.82568Z" fill="#9EB4BA"/>
<path id="Vector_3" d="M664.984 98.3857L666.229 96.2286C667.424 87.7976 667.077 89.0726 670.354 85.3276C680.479 97.2526 690.001 98.9497 701.599 94.9677C706.171 93.3977 716.575 84.7777 719.449 90.5587C727.23 106.204 729.251 111.759 741.792 115.26C745.203 116.624 746.358 115.988 748.473 119.949C748.54 121.892 748.663 124.262 748.658 126.166C749.646 131.769 752.453 139.181 754.786 143.404C749.244 150.128 749.149 143.099 746.514 149.659C742.401 148.834 737.148 129.608 731.037 123.884C725.438 121.189 715.637 105.65 712.841 105.589C692.462 105.143 685.184 116.639 664.984 98.3857Z" fill="#9EB4BA"/>
<path id="Vector_4" d="M670.215 40.1087C680.92 33.4187 688.187 34.1537 699.339 34.5837C704.391 34.7787 707.594 33.7127 710.82 26.8407C713.087 22.0197 715.342 19.4887 718.378 16.4567L719.355 15.4907C722.385 25.9707 722.586 25.0057 719.45 35.3037C719.561 39.2587 714.744 46.8257 712.679 48.7857C700.037 45.4287 691.452 42.4187 678.704 47.6207C674.211 52.6677 671.978 52.9857 667.932 60.9977L667 61.2108L665.889 60.3057C663.572 61.9437 663.673 61.6887 661.156 61.1627C659.314 58.0297 659.481 57.2007 658.945 52.7307C662.099 47.1167 666.274 43.5627 670.215 40.1087Z" fill="#8CAAB1"/>
<path id="Vector_5" d="M658.945 52.7304C662.099 47.1164 666.274 43.5624 670.215 40.1084C672.252 40.7494 678.146 41.3794 679.374 42.8364L679.184 44.7154L676.968 46.5984L677.448 47.1364L677.471 46.3834C677.884 46.7964 678.291 47.2084 678.704 47.6204C674.211 52.6674 671.978 52.9854 667.932 60.9974L667 61.2104L665.889 60.3054C663.572 61.9434 663.673 61.6884 661.156 61.1624C659.314 58.0294 659.481 57.2004 658.945 52.7304Z" fill="#9EB4BA"/>
<path id="Vector_6" d="M727.37 7.86378C745.621 -4.89022 772.938 -6.0272 790.86 8.8888L791.401 8.82582C792.406 16.6588 792.881 15.4998 788.923 20.3538C788.572 20.2138 788.225 20.0728 787.874 19.9328C768.651 6.17481 754.2 7.5288 733.906 18.0558C729.563 12.8168 733.493 12.3128 727.37 7.86378Z" fill="#98B1B4"/>
<path id="Vector_7" d="M719.354 15.4908C720.979 13.5198 725.433 9.66577 727.37 7.86377C733.493 12.3128 729.563 12.8168 733.906 18.0558C725.896 23.1388 725.494 26.4338 719.449 35.3038C722.586 25.0058 722.385 25.9708 719.354 15.4908Z" fill="#AABDBF"/>
<path id="Vector_8" d="M658.945 52.7305C659.481 57.2005 659.313 58.0295 661.155 61.1625C663.673 61.6885 663.572 61.9435 665.889 60.3055L666.999 61.2105C666.24 70.4025 664.627 80.2465 670.354 85.3275C667.077 89.0725 667.423 87.7975 666.229 96.2285L664.984 98.3855C658.817 90.9845 652.242 80.6515 654.43 64.4625C654.943 60.6665 656.925 54.4225 658.945 52.7305Z" fill="#9EB4BA"/>
<path id="Vector_9" d="M812.304 85.9307C818.477 91.4377 821.715 95.1647 825.466 106.397C817.473 101.379 820.638 109.689 815.279 108.117C813.27 103.652 813.37 101.764 814.258 96.7416L816.351 95.4966L815.966 93.9117C813.426 91.1577 813.605 90.9777 812.304 85.9307Z" fill="#8CAAB1" fill-opacity="0.988235"/>
</g>
<g id="Espuma Oreja Derecha_2">
<path id="Vector_10" d="M174.778 49.1179C178.654 25.1287 198.607 3.36952 224.047 1.43328L224.411 0.970143C240.302 0.559583 247.042 -3.52533 268.846 10.6549C289.39 24.0117 286.258 48.4114 301.157 45.7566C306.128 48.7398 306.134 49.0181 310.244 49.2483L311.787 50.2029L311.171 52.7825C314.453 57.4172 315.865 58.9815 320.919 60.9648C326.249 58.1108 317.281 53.9805 327.338 51.8295C382.494 95.9835 337.476 149.902 301.185 146.217C297.395 148.709 278.228 137.572 269.05 137.73C262.652 139.882 242.92 135.125 240.737 137.213C224.831 152.426 228.34 167.043 198.531 168.089L197.78 165.439C192.045 157.884 192.786 159.152 192.334 153.699C183.957 154.07 177.427 145.082 170.759 137.26L169.198 137.395C168.721 140.455 168.597 140.177 166.261 141.685C162.385 140.623 161.859 139.842 157.926 136.73C155.907 129.898 156.291 123.909 156.576 118.178C159.473 104.73 165.599 99.7586 174.45 91.5798C178.459 87.8754 180.064 84.5885 177.109 76.7099C175.037 71.1806 174.763 67.4642 174.69 62.7561L174.674 61.249C174.36 58.4555 174.721 52.017 174.778 49.1179Z" fill="#E3F4F9"/>
<path id="Vector_11" d="M224.41 0.970418C240.301 0.559854 247.042 -3.52505 268.845 10.6552C289.39 24.012 286.257 48.4116 301.156 45.7568C306.128 48.7401 306.133 49.0183 310.243 49.2485L311.787 50.2032L311.171 52.7828C314.453 57.4175 315.865 58.9818 320.919 60.9651C326.248 58.1111 317.28 53.9808 327.337 51.8298C382.493 95.9837 337.476 149.902 301.185 146.217C298.023 139.036 303.638 144.502 302.567 134.971L304.452 134.418C310.669 133.176 321.366 130.821 325.923 127.101C336.278 118.653 350.453 91.5112 328.211 68.7217C311.399 51.4863 297.703 62.5761 286.629 59.3233C275.858 47.7833 278.041 15.5332 231.607 11.9461C230.801 5.09914 231.353 6.37474 224.41 0.970418Z" fill="#9EB4BA"/>
<path id="Vector_12" d="M198.53 168.089L197.779 165.439C192.044 157.883 192.785 159.152 192.333 153.699C209.463 155.362 218.069 149.426 223.783 137.43C226.034 132.702 227.179 117.964 233.931 120.323C252.205 126.707 258.126 129.541 270.46 122.72C274.138 121.19 274.518 119.807 279.256 121.312C280.839 122.791 282.801 124.565 284.298 126.069C289.47 129.729 297.456 133.425 302.567 134.971C303.638 144.502 298.023 139.036 301.185 146.217C297.394 148.709 278.227 137.572 269.049 137.73C262.651 139.882 242.919 135.125 240.737 137.213C224.831 152.426 228.339 167.042 198.53 168.089Z" fill="#9EB4BA"/>
<path id="Vector_13" d="M156.575 118.177C159.472 104.73 165.598 99.7582 174.449 91.5794C178.459 87.875 180.064 84.5881 177.108 76.7096C175.037 71.1803 174.762 67.4638 174.69 62.7558L174.673 61.2486C185.249 67.1911 184.642 66.2773 190.367 76.787C193.57 79.8179 195.86 89.459 195.829 92.5806C183.532 99.5914 174.607 103.776 168.978 117.612C169.527 125.02 168.074 126.976 171.302 136.379L170.759 137.259L169.197 137.394C168.721 140.454 168.596 140.177 166.26 141.685C162.384 140.623 161.858 139.842 157.925 136.729C155.906 129.897 156.291 123.908 156.575 118.177Z" fill="#8CAAB1"/>
<path id="Vector_14" d="M157.925 136.73C155.906 129.898 156.291 123.909 156.575 118.178C158.636 117.127 163.631 113.121 165.717 113.331L167.054 114.957L166.847 118.133L167.637 118.19L167.061 117.58C167.702 117.59 168.338 117.603 168.978 117.612C169.527 125.021 168.074 126.976 171.302 136.38L170.759 137.26L169.197 137.395C168.721 140.455 168.596 140.177 166.26 141.685C162.384 140.623 161.858 139.842 157.925 136.73Z" fill="#9EB4BA"/>
<path id="Vector_15" d="M174.778 49.1179C178.653 25.1288 198.607 3.36958 224.047 1.43333L224.41 0.970196C231.353 6.37452 230.801 5.09891 231.607 11.9459C231.229 12.1042 230.853 12.2574 230.475 12.4157C204.955 16.2576 194.993 28.3615 187.802 52.1563C180.357 51.3451 182.959 47.9468 174.778 49.1179Z" fill="#98B1B4"/>
<path id="Vector_16" d="M174.674 61.2486C174.36 58.4551 174.721 52.0166 174.778 49.1175C182.96 47.9463 180.358 51.3447 187.803 52.1559C185.697 62.2783 187.988 65.1814 190.367 76.787C184.642 66.2773 185.25 67.1911 174.674 61.2486Z" fill="#AABDBF"/>
<path id="Vector_17" d="M157.925 136.729C161.858 139.842 162.384 140.623 166.26 141.685C168.596 140.177 168.72 140.454 169.197 137.395L170.758 137.259C177.426 145.082 183.956 154.07 192.333 153.699C192.785 159.152 192.044 157.883 197.779 165.438L198.53 168.089C187.987 166.968 174.822 163.848 163.728 149.422C161.127 146.039 157.717 139.606 157.925 136.729Z" fill="#9EB4BA"/>
<path id="Vector_18" d="M301.156 45.7563C310.209 45.3804 315.619 45.8443 327.337 51.8293C317.28 53.9803 326.248 58.1106 320.918 60.9646C315.864 58.9813 314.453 57.417 311.17 52.7823L311.786 50.2027L310.243 49.2481C306.133 49.0179 306.128 48.7396 301.156 45.7563Z" fill="#8CAAB1" fill-opacity="0.988235"/>
</g>
<g id="Espuma Cabeza 2">
<path id="Vector_19" d="M328.404 235.502C319.213 232.777 312.146 231.237 304.568 226.049C280.792 209.815 267.85 153.148 331.755 152.06C333.736 152.028 344.019 138.374 347.255 135.994C381.239 111.026 431.627 168.079 402.529 198.158C400.243 200.524 396.452 204.965 394.21 207.437C394.899 210.365 396.577 216.225 396.411 219.25C396.744 222.539 394.433 235.166 392.555 239.091C390.752 242.901 387.51 246.54 383.566 249.18C373.151 256.181 364.878 255.138 356.229 254.728C355.396 254.938 350.99 254.216 349.941 254.073C338.052 249.773 335.033 244.749 328.404 235.502Z" fill="#99B5BA"/>
<path id="Vector_20" d="M334.094 221.209C319.787 220.205 303.758 213.756 301.329 201.387C293.25 160.285 327.429 166.761 347.84 170.674C348.189 164.664 348.02 155.206 354.137 149.993C377.219 130.32 401.216 161.907 394.975 179.202C390.935 190.384 387.262 193.165 377.919 200.371C379.46 206.67 380.924 213.014 382.298 219.404C382.204 230.604 377.973 236.552 364.329 241.882L359.459 241.458C345.286 238.763 340.45 231.404 334.094 221.209Z" fill="#E3F4F9"/>
<path id="Vector_21" d="M315.888 204.765C312.783 200.642 306.269 191.866 314.347 184.843C318.524 183.304 320.279 184.4 323.604 185.323C326.444 189.918 333.082 199.176 323.959 206.654C318.838 207.327 320.088 206.866 315.888 204.765Z" fill="#E1EFEF"/>
</g>
<g id="Espuma cabeza">
<path id="Vector_22" d="M540.494 129.656C555.865 105.899 578.741 91.8928 609.419 100.606C625.741 104.631 645.588 117.682 649.719 133.547C650.055 134.355 651.17 137.641 651.899 137.816C678.802 144.289 686.334 149.26 692.02 175.423C708.942 180.483 711.783 184.535 724.488 195.654C760.371 173.068 805.211 188.329 814.696 228.076C816.304 234.815 815.896 241.279 815.758 248.134C823.964 246.481 831.251 247.176 839.036 250.211C848.681 254.041 856.229 261.326 859.951 270.394C865.168 282.806 862.235 292.74 856.691 304.118C863.565 309.721 867.634 312.867 871.968 320.416C877.319 329.91 878.366 340.981 874.877 351.189C871.358 361.835 863.353 370.726 852.665 375.863C841.738 381.044 829.021 381.972 817.348 378.44C802.705 373.92 795.567 365.175 789.002 353.12C764.674 363.448 742.746 349.1 731.161 329.494C705.295 334.249 692.552 330.243 678.351 309.625C640.406 325.857 607.319 305.338 599.952 268.882C577.263 261.499 564.53 256.387 551.898 235.984C530.817 243.83 516.414 242.562 501.873 225.179C487.758 231.429 472.995 232.279 459.463 224.031C450.165 218.318 443.758 209.378 441.696 199.241C439.703 189.509 442.033 179.446 448.161 171.32C457.11 159.475 467.577 157.362 481.637 155.036C487.692 141.919 488.258 138.858 501.724 131.309C517.263 124.661 524.955 125.645 540.494 129.656Z" fill="#E8F5F7"/>
<path id="Vector_23" d="M481.637 155.036C487.692 141.919 488.258 138.858 501.724 131.309C500.57 136.73 500.254 138.384 500.367 143.854C498.4 145.947 496.59 147.921 495.034 150.234C493.767 151.871 490.047 164.203 488.313 164.367C471.076 165.996 450.308 172.746 451.862 192.18C453.098 207.627 464.808 220.197 482.296 219.901C490.926 219.754 500.894 210.003 508.252 213.768C515.54 220.651 517.11 232.28 531.763 231.135C540.518 230.453 546.976 226.118 554.177 221.288C568.277 240.126 574.987 252.747 601.329 258.636C604.173 249.884 610.231 232.805 622.85 233.876L624.662 235.356C624.656 241.891 614.42 249.008 613.125 254.436C603.467 294.885 643.911 316.518 680.969 296.748C684.916 294.643 691.066 306.9 691.755 309.258C700.715 327.533 723.53 320.534 737.926 315.592C742.306 326.887 747.215 338.271 759.697 343.85C775.264 350.808 784.994 340.175 793.985 342.163C800.769 343.663 805.896 381.541 843.018 369.335C851.837 366.435 859.004 360.35 862.875 352.476C873.275 331.119 859.662 317.399 840.692 307.624C845.051 300.216 850.532 294.303 851.409 285.376C852.796 271.269 847.826 267.687 836.383 260.9C827.236 255.476 803.934 260.431 802.212 257.733C802.508 254.059 802.948 250.345 803.633 246.715C807.789 224.662 793.394 202.792 770.62 195.776C745.157 193.179 742.157 199.029 735.963 201.231C731.163 202.937 727.235 206.987 722.776 209.344C717.091 212.35 711.783 197.314 706.609 193.179C700.519 188.314 689.365 186.188 681.604 184.106C672.502 177.011 689.406 158.327 658.95 148.633C653.353 145.22 651.138 135.83 640.165 138.112L639.487 137.254C642.895 135.956 646.228 134.653 649.719 133.547C650.055 134.355 651.17 137.641 651.899 137.816C678.802 144.289 686.334 149.26 692.02 175.423C708.942 180.483 711.783 184.535 724.488 195.654C760.371 173.068 805.211 188.329 814.696 228.076C816.304 234.815 815.896 241.279 815.758 248.134C823.964 246.481 831.251 247.176 839.036 250.211C848.681 254.041 856.229 261.326 859.951 270.395C865.168 282.806 862.235 292.74 856.691 304.118C863.565 309.721 867.634 312.867 871.968 320.416C877.319 329.91 878.366 340.981 874.877 351.189C871.358 361.835 863.353 370.726 852.665 375.863C841.738 381.045 829.021 381.972 817.348 378.44C802.705 373.92 795.567 365.175 789.002 353.12C764.674 363.448 742.746 349.1 731.161 329.495C705.295 334.249 692.552 330.243 678.351 309.625C640.406 325.857 607.319 305.338 599.952 268.882C577.263 261.499 564.53 256.387 551.898 235.984C530.817 243.83 516.414 242.562 501.873 225.179C487.758 231.429 472.995 232.279 459.463 224.031C450.165 218.318 443.758 209.379 441.696 199.241C439.703 189.509 442.033 179.446 448.161 171.32C457.11 159.475 467.577 157.362 481.637 155.036Z" fill="#A1B4BA"/>
<path id="Vector_24" d="M540.494 129.656C555.865 105.899 578.741 91.8928 609.419 100.606L608.059 102.016L608.526 102.263C603.587 108.455 603.981 108.075 595.704 108.086C583.348 108.448 570.318 110.783 560.53 120.357C546.845 133.745 552.958 150.845 529.722 137.696C520.936 132.724 508.854 137.563 501.937 142.668C501.408 143.058 500.886 143.453 500.367 143.854C500.254 138.384 500.57 136.73 501.723 131.309C517.263 124.661 524.955 125.645 540.494 129.656Z" fill="#9AB3BB"/>
<path id="Vector_25" d="M609.419 100.606C625.741 104.631 645.588 117.682 649.719 133.547C646.228 134.653 642.895 135.956 639.487 137.255C637.755 132.766 635.252 128.565 632.072 124.813C622.167 113.302 610.554 109.72 595.704 108.087C603.981 108.075 603.587 108.455 608.526 102.263L608.059 102.016L609.419 100.606Z" fill="#9EB3BA"/>
<path id="Vector_26" d="M640.165 138.112C651.138 135.83 653.353 145.22 658.949 148.633C653.989 148.36 648.638 148.846 643.645 149.175L640.165 138.112Z" fill="#A5B9C0"/>
<path id="Vector_27" d="M580.098 119.581C588.744 119.115 601.91 117.955 609.595 121.469C621.653 126.983 634.488 144.899 627.689 157.287C620.99 162.166 617.104 158.071 611.669 153.648C596.133 140.079 572.757 156.642 561.335 146.187C558.083 136.998 571.434 123.068 580.098 119.581Z" fill="#FEFEFD"/>
<path id="Vector_28" d="M761.859 204.71C772.129 207.085 776.552 207.519 784.144 215.246C790.022 221.491 795.736 231.733 794.892 240.252C793.979 249.456 786.442 251.348 778.168 250.302C773.974 245.181 771.866 233.602 765.271 229.291C759.96 225.819 750.625 222.953 744.346 221.322C743.258 218.078 744.474 214.342 745.164 210.837C751.945 207.719 754.612 206.685 761.859 204.71Z" fill="#FEFEFD"/>
<path id="Vector_29" d="M794.829 266.037C797.171 266.261 803.34 267.001 805.325 268.022C817.758 274.415 828.273 296.173 808.974 301.456C804.954 295.854 809.49 292.534 808.946 285.797C807.791 271.511 792.876 278.078 787.074 273.136L787.224 270.988C789.518 268.04 791.342 267.544 794.829 266.037Z" fill="#B7C9CE"/>
<path id="Vector_30" d="M689.939 202.881C699.392 201.974 708.685 209.511 706.201 219.021C705.518 221.634 701.609 222.626 699.067 223.627C684.907 222.618 672.619 212.18 689.939 202.881Z" fill="#FEFEFD"/>
</g>
<g id="Espuma">
<path id="Vector_31" d="M171.489 223.48C176.812 217.852 183.817 210.63 188.344 207.727C210.108 193.765 247.586 192.605 260.265 234.202C261.813 239.282 259.789 249.012 259.276 254.422C261.777 269.202 271.161 272.842 267.249 291.262C258.934 330.432 231.502 325.922 212.742 330.232C212.401 330.312 211.181 333.702 211.305 334.232C206.026 361.592 204.004 367.132 189.118 380.142C184.648 384.462 176.606 387.362 172.364 388.902C168.963 390.132 149.718 392.032 149.3 393.692C147 402.842 143.903 415.322 133.719 423.852C119.933 435.412 103.03 434.212 88.5181 427.592C81.5261 422.572 72.8764 415.902 70.7598 400.762C70.1431 396.352 70.7966 386.662 72.6095 383.462C84.4676 362.532 61.121 362.892 60.142 340.472C59.7061 332.322 60.2436 329.622 62.1748 322.442C68.3821 299.382 82.3075 298.462 93.8256 290.232C93.2133 287.432 93.095 272.122 93.1235 270.912C93.81 242.132 112.099 226.658 126.013 222.44C136.284 217.164 149.608 215.207 160.072 219.666C164.619 220.149 167.318 222.219 171.489 223.48Z" fill="#9EB4BA"/>
<path id="Vector_32" d="M152.166 230.272C159.971 232.582 174.126 239.932 181.148 234.132C183.27 232.382 188.557 221.55 191.436 218.65C204.147 205.847 248.757 207.662 248.613 244.322C248.603 246.982 245.45 251.912 245.556 258.602C249.387 270.912 258.357 267.752 255.716 288.352C250.225 331.192 207 309.602 198.497 317.822C196.264 332.392 199.016 336.232 195.02 354.182C192.526 358.382 190.992 361.682 187.826 363.942C177.802 378.612 165.416 379.832 153.073 379.052C149.057 378.802 144.744 378.002 140.864 380.272C136.662 382.732 138.296 426.012 104.155 420.442C102.722 420.212 101.436 419.702 100.081 418.832C95.0131 415.572 93.4883 416.292 88.4347 410.662C72.6534 393.062 91.0882 382.672 92.6114 368.972C86.5554 359.562 68.9227 352.232 72.6802 328.452C76.7877 302.462 100.381 305.302 109.199 296.672C109.472 291.182 106.338 283.602 105.258 275.962C104.301 269.072 105.041 261.782 107.288 255.942C113.807 238.752 128.437 233.452 138.91 230.192C143.339 230.322 147.738 230.522 152.166 230.272Z" fill="#E3F4F9"/>
</g>
</g>
<defs>
<clipPath id="clip0_420_138">
<rect width="977" height="1236" fill="white"/>
</clipPath>
</defs>
</svg>
